<?xml version="1.0" encoding="UTF-8"?>
<svg id="_图层_1" data-name="图层_1" xmlns="http://www.w3.org/2000/svg" xmlns:xlink="http://www.w3.org/1999/xlink" version="1.1" viewBox="0 0 1080 300">
  <!-- Generator: Adobe Illustrator 29.5.0, SVG Export Plug-In . SVG Version: 2.1.0 Build 137)  -->
  <defs>
    <style>
      .st0 {
        fill: url(#_未命名的渐变_6);
      }

      .st1 {
        fill: #fff;
      }

      .st2 {
        fill: #1943e7;
      }

      .st3 {
        fill: url(#_未命名的渐变_10);
      }

      .st4 {
        fill: url(#_未命名的渐变_15);
      }

      .st5 {
        fill: url(#_未命名的渐变_29);
      }

      .st6 {
        fill: url(#_未命名的渐变_30);
      }
    </style>
    <linearGradient id="_未命名的渐变_15" data-name="未命名的渐变 15" x1="153.2" y1="9.3" x2="190.5" y2="51.8" gradientUnits="userSpaceOnUse">
      <stop offset="0" stop-color="#099cfa"/>
      <stop offset=".3" stop-color="#0997f5"/>
      <stop offset=".7" stop-color="#098be8"/>
      <stop offset=".9" stop-color="#0980dc"/>
    </linearGradient>
    <linearGradient id="_未命名的渐变_6" data-name="未命名的渐变 6" x1="182.8" y1="152.6" x2="212.9" y2="197.7" gradientUnits="userSpaceOnUse">
      <stop offset="0" stop-color="#315aff"/>
      <stop offset=".2" stop-color="#2f57fa"/>
      <stop offset=".4" stop-color="#2a51ed"/>
      <stop offset=".7" stop-color="#2347d8"/>
      <stop offset=".9" stop-color="#1939ba"/>
      <stop offset="1" stop-color="#1433ac"/>
    </linearGradient>
    <linearGradient id="_未命名的渐变_10" data-name="未命名的渐变 10" x1="191.7" y1="57.2" x2="148" y2="104.8" gradientUnits="userSpaceOnUse">
      <stop offset="0" stop-color="#0083ff"/>
      <stop offset=".3" stop-color="#007ffa"/>
      <stop offset=".5" stop-color="#0076ed"/>
      <stop offset=".8" stop-color="#0066d8"/>
      <stop offset="1" stop-color="#0157c4"/>
    </linearGradient>
    <linearGradient id="_未命名的渐变_29" data-name="未命名的渐变 29" x1="284.4" y1="77.7" x2="346.4" y2="133.1" gradientUnits="userSpaceOnUse">
      <stop offset="0" stop-color="#0f7ef4"/>
      <stop offset=".3" stop-color="#1074ed"/>
      <stop offset=".7" stop-color="#155bdc"/>
      <stop offset=".9" stop-color="#1b42cb"/>
    </linearGradient>
    <linearGradient id="_未命名的渐变_30" data-name="未命名的渐变 30" x1="71" y1="34.9" x2="99.8" y2="64.4" gradientUnits="userSpaceOnUse">
      <stop offset="0" stop-color="#0f7ef4"/>
      <stop offset=".7" stop-color="#1751d5"/>
      <stop offset=".9" stop-color="#1b42cb"/>
    </linearGradient>
  </defs>
  <g>
    <path class="st4" d="M240.7,55.9c-12.3,5.4-25.9,8.3-40.2,8.3-33.6,0-63.3-16.4-81.6-41.6L144.4.2c15.8,17,38.3,27.6,63.4,27.6s4.5,0,6.6-.3l26.3,28.4Z"/>
    <path class="st0" d="M242.7,123.7c-9.7,2.9-20,4.4-30.7,4.4-42.7,0-79.5-24.7-97-60.6l-52.1,46.2c29.7,47.3,81.3,79.5,140.7,82.3h0c2.8.1,5.6.2,8.4.2,29.1,0,56.6-7.1,80.8-19.6,0,0-11-11.6-22.7-23.9-13.3-14.1-27.5-29-27.5-29Z"/>
    <path class="st3" d="M248.9,64.7c-17.4,29.3-48.3,49.7-84.2,52.5-21.6-10.6-39.2-28.1-49.7-49.7,5.8,1.1,11.8,1.6,18,1.6,33.5,0,63.2-16.3,81.5-41.5l34.4,37.1Z"/>
    <path class="st2" d="M272.2,154.9l73.9,77.7c-46,42-107.1,67.5-174.2,67.5S45.2,275.2-.6,234.3l67.4-70.9c26.1,23.4,60.5,37.7,98.4,37.7s80.2-17.7,107-46.2Z"/>
    <path class="st5" d="M351.3,98c-16.5,0-44.2,27.7-44.2,44.2,0-16.5-27.7-44.2-44.2-44.2,16.5,0,44.2-27.7,44.2-44.2,0,16.5,27.7,44.2,44.2,44.2Z"/>
    <path class="st6" d="M102.5,43.9c-8.5,0-22.7,14.2-22.7,22.7,0-8.5-14.3-22.7-22.7-22.7,8.5,0,22.7-14.3,22.7-22.7,0,8.5,14.3,22.7,22.7,22.7Z"/>
  </g>
  <g>
    <path class="st1" d="M445,91.9c6.5-20.6,23.4-30.5,41.2-30.5s35,9.9,41.5,30.5l50.3,163.3h-42.1l-11-39-77.1.3-11,38.7h-42.1l50.3-163.3ZM458.5,179.5h55.7l-21.5-75.4c-1.1-4-2.8-5.7-6.2-5.7s-5.1,1.7-6.2,5.7l-21.8,75.4Z"/>
    <path class="st1" d="M602.1,255.2v-80.2c0-35.9,20.3-63.3,61.9-63.3s18.9,1.7,26,4.8v39c-6.8-4-15-5.9-22.3-5.9-15.8,0-25.4,10.2-25.4,26.8v78.8h-40.1Z"/>
    <path class="st1" d="M703.8,69.6c0-13.6,11.3-24.9,24.9-24.9s24.6,11.3,24.6,24.9-11,24.9-24.6,24.9-24.9-11-24.9-24.9ZM748.7,115.4v139.8h-40.1V115.4h40.1Z"/>
    <path class="st1" d="M781.8,223.6l29.7-16.7c5.9,11.3,15.3,16.1,29.4,16.1s21.2-5.1,21.2-13.3c0-22.6-76.8-3.1-76.8-57.1s22-44.9,56.5-44.9,48,14.1,56.5,30.2l-29.7,16.7c-4.5-10.2-14.7-15-26-15s-17.2,4.8-17.2,12.2c0,22.6,76.8,4.5,76.8,57.1s-27.4,46.3-59.3,46.3-49.4-10.7-61-31.6Z"/>
    <path class="st1" d="M935.5,255.2V50.9h40.1v118.7h13.3c1.4-2.5,3.1-5.1,5.1-7.6l38.7-46.6h47.7l-58.2,69.5,57.9,70.3h-47.7l-38.7-47.5c-2-2.5-3.7-5.4-5.1-8.2h-13v55.7h-40.1Z"/>
  </g>
</svg>